<svg width="935" height="555" viewBox="0 0 935 555" fill="none" xmlns="http://www.w3.org/2000/svg">
<path d="M550.621 190.359L388.481 191.409L550.621 342.829L712.771 191.409L550.621 190.359Z" fill="black"/>
<path d="M590.481 12.9496C590.481 12.9496 580.541 0.389648 552.021 0.389648C551.541 0.389648 551.091 0.409647 550.621 0.419647C550.161 0.419647 549.701 0.389648 549.221 0.389648C520.701 0.389648 510.761 12.9496 510.761 12.9496L356.901 156.34L388.471 191.4L526.461 62.1397C526.461 62.1397 533.181 52.8297 549.221 52.7297V52.8197C549.681 52.7897 550.141 52.7596 550.621 52.7496C551.091 52.7696 551.561 52.7897 552.021 52.8197V52.7297C568.061 52.8297 574.781 62.1397 574.781 62.1397L712.771 191.4L744.341 156.34L590.481 12.9496Z" fill="black"/>
<path d="M554.742 478.27L661.022 385.75C661.142 385.65 661.322 385.65 661.442 385.75L816.662 536.59C823.732 543.17 819.022 555 809.372 554.93L288.802 551.11C280.172 551.05 275.992 540.51 282.232 534.55L438.292 385.56L546.482 478.3C548.862 480.34 552.382 480.33 554.742 478.27Z" fill="black"/>
<path d="M691.231 367.249L838.291 226.469V512.729L691.231 367.249Z" fill="black"/>
<path d="M121.891 422.899H75.0514C67.6839 422.899 61.7114 428.872 61.7114 436.239V445.139C61.7114 452.507 67.6839 458.479 75.0514 458.479H121.891C129.259 458.479 135.231 452.507 135.231 445.139V436.239C135.231 428.872 129.259 422.899 121.891 422.899Z" fill="black"/>
<path d="M60.4915 354.509H13.6515C6.28405 354.509 0.311523 360.481 0.311523 367.849V376.749C0.311523 384.116 6.28405 390.089 13.6515 390.089H60.4915C67.859 390.089 73.8315 384.116 73.8315 376.749V367.849C73.8315 360.481 67.859 354.509 60.4915 354.509Z" fill="black"/>
<path d="M116.311 288.749H69.4713C62.1039 288.749 56.1313 294.722 56.1313 302.089V310.989C56.1313 318.357 62.1039 324.329 69.4713 324.329H116.311C123.679 324.329 129.651 318.357 129.651 310.989V302.089C129.651 294.722 123.679 288.749 116.311 288.749Z" fill="black"/>
<path fill-rule="evenodd" clip-rule="evenodd" d="M339.031 190.359L545.941 382.259C548.571 384.699 552.641 384.649 555.211 382.149L797.471 146.569L735.371 78.1888L934.241 67.7188L918.191 266.589L834.601 187.589L555.391 447.759C552.711 450.259 548.551 450.239 545.891 447.719L275.531 191.409L339.031 190.359ZM396.732 354.509H125.552C115.722 354.509 107.762 362.479 107.762 372.299C107.762 382.119 115.732 390.089 125.552 390.089H384.732L409.472 366.479L396.732 354.499V354.509ZM311.611 459.869H187.311C177.491 459.869 169.521 451.899 169.521 442.079C169.521 432.259 177.481 424.289 187.311 424.289H348.901L311.611 459.869ZM325.441 287.529H179.981C170.151 287.529 162.191 295.499 162.191 305.319C162.191 315.149 170.161 323.109 179.981 323.109H363.311L325.451 287.529H325.441ZM137.071 222.979H256.761H256.771L294.631 258.559H137.071C127.251 258.559 119.281 250.589 119.281 240.769C119.281 230.949 127.241 222.979 137.071 222.979Z" fill="url(#paint0_linear_52_16)"/>
<defs>
<linearGradient id="paint0_linear_52_16" x1="47.1205" y1="459.869" x2="965.16" y2="67.7188" gradientUnits="userSpaceOnUse">
<stop stop-color="#3CB1AB"/>
<stop offset="0.402947" stop-color="#82A8E1"/>
<stop offset="1" stop-color="#93D9FD"/>
</linearGradient>
</defs>
</svg>
